<?xml version="1.0" encoding="UTF-8"?>
<svg id="Capa_2" data-name="Capa 2" xmlns="http://www.w3.org/2000/svg" viewBox="0 0 384.74 360.31">
  <defs>
    <style>
      .cls-1 {
        fill: #7c0f1f;
      }
    </style>
  </defs>
  <g id="Capa_1-2" data-name="Capa 1">
    <path class="cls-1" d="M370.48,271.4l-.53.31c-.68,3.71-2.67,11.62-9.23,18.73-5.51,5.98-11.56,8.46-15.16,9.89-3.91,1.56-11.36,3.12-25.92,3.21-17.19.11-32.77-3.9-46.34-11.94-9.76-5.73-19.44-13.4-28.82-22.88-.36-.35-.71-.66-.98-1.01-1.27-1.25-2.52-2.55-3.77-3.89v-8.43s0,0,0,0l-.05-136.67c0-14.14-2.5-27.7-7.12-40.28-.05-.09-.05-.18-.09-.27-.86-2.38-1.82-4.71-2.86-7C211.11,29.32,168.81,0,119.71,0S28.37,29.32,9.85,71.17c-1.04,2.29-1.95,4.62-2.86,7-.05.09-.05.18-.09.27C2.27,91.01,0,104.57,0,118.72l.08,241.57h7.35s0,.03,0,.03l.06-.02h67.43s0,0,0,0h49.89s114.96,0,114.96,0l.02-30.02h0v-7.46s-7.49,0-7.49,0v7.46s0,0,0,0l-.04,8.55c-.68,6.98-7.44,13.96-14.95,13.96h-59.94l-.02-44.95h25.56c7.92,0,14.09,5.48,14.09,12.82v5.42h5.31v-43.97h-5.31v5.3c0,7.34-6.48,12.94-14.4,12.94h-25.25v-37.46h59.94c7.78,0,14.76,7.51,14.98,14.72v3.16s-.03,12.21-.03,12.21h.04v7.37h7.5v-24.06c1.26,1.2,2.54,2.34,3.83,3.44.31.35.62.61.98.92,7.51,6.58,15.19,12.23,22.95,16.91,15.39,9.27,33.01,13.93,52.27,13.81,10.16-.07,19.39-1.18,27.59-3.4,8.16-2.22,14.95-4.82,20.37-7.73,5.37-2.91,10.96-6.34,16.68-10.18l.31-.22-14.26-18.43ZM14.61,240.11v-.11s.04.07.06.1c4.09,6.38,9.57,11.52,16.35,15.29l-23.58.04.02-41.14c.02,9.81,2.42,18.45,7.16,25.81ZM232.22,189.98c-.38-6.98-3.1-12.7-8.02-17.05h8.02s0,17.05,0,17.05ZM187.4,89.1l-.05,59.37c0,9.52-7.96,16.99-17.07,16.99h-43.33l61.03-86.06c-.39,4.58-.56,7.8-.56,9.7ZM116.1,211.68c-.38-8.78-2.75-16.65-7.05-23.35-4.02-6.22-9.33-11.28-15.89-15.08-.16-.09-.33-.19-.49-.28h23.45l-.02,38.72ZM77.51,165.46h-8.4c-9.11,0-16.64-7.47-16.64-16.99l.05-59.18c0-3.17-.29-6.44-.55-9.84l60.57,86.01h-35.03ZM57.87,172.83h7.76c7.49.4,14.33,2.01,20.41,4.85,7.01,3.32,12.66,8.69,16.58,14.8,3.91,6.11,5.92,13.33,5.92,21.56s-2,15.36-5.92,21.43c-3.91,6.11-9.6,11.69-16.61,14.97-6.16,2.88-13.1,4.53-20.72,4.91h-6.91c-7.75-.36-14.76-2.01-20.93-4.91-7.01-3.28-12.42-8.86-16.38-14.97-3.91-6.07-5.91-13.28-5.91-21.43s2-15.36,5.91-21.47c3.91-6.15,9.41-11.57,16.41-14.89,6.03-2.84,12.85-4.44,20.39-4.85ZM92.84,255.3c6.69-3.78,12.13-8.86,16.21-15.19,4.3-6.73,6.67-14.59,7.05-23.35l-.02,38.5-23.25.04ZM123.61,172.97l71.89.18c9.1,0,16.04.81,20.64,4.3,4.55,3.53,6.89,8.31,6.89,14.23s-2.44,9.43-7.17,13.09c-4.73,3.62-11.62,5.57-20.41,5.66l-71.89-.1.05-37.37ZM195.58,217.99c7.82,0,14.58-1.24,20.06-3.76,5.48-2.43,9.73-4.48,12.47-8.63,2.47-3.7,3.86-7.87,4.11-12.41l.03,62.1c-.84-.99-1.67-1.98-2.53-2.91-4.65-5.1-9.63-11.17-14.68-16.08-4.88-4.73-8.7-8.44-14.56-11.78-7.51-4.29-14.67-5.88-19.52-6.53h14.63ZM232.19,118.71l.02,46.75h-20.71c-9.11,0-16.66-7.47-16.66-16.99l.05-59.53c0-7.71,6.22-13.51,13.6-13.51h14.56c.39.91.76,1.82,1.12,2.74.05.09.05.18.09.27,4.99,12.48,7.91,25.96,7.92,40.27ZM119.71,7.63c43.4,0,81.16,24.51,99.8,60.3h-33.44l-65.98,93.96L53.45,67.94H19.96C38.6,32.15,76.35,7.63,119.71,7.63ZM15.16,78.44c.05-.09.09-.18.09-.27.37-.92.75-1.83,1.14-2.74h14.68c7.38,0,13.91,5.74,13.91,13.45v59.59c0,9.52-7.86,16.99-16.97,16.99H7.52v7.38s23.73,0,23.73,0c-6.88,3.81-12.44,9.03-16.58,15.5-.02.03-.04.06-.06.1v-.09c-4.74,7.31-7.14,16.01-7.16,25.76l.04-95.38c0-14.19,2.72-27.79,7.67-40.28ZM7.4,352.79l.04-89.86h15.4c8.05-.01,14.58,6.51,14.58,14.56l.04,60.38c0,8.16-6.56,14.78-14.69,14.91H7.49s-.1,0-.1,0ZM74.9,352.79v-.03l-7.77.03h-8.11c-7.83-.45-14.05-6.94-14.05-14.89l-.05-30.04,24.52.05c7.86,0,14.91,6.31,14.91,14.15v4.57h5.54v-44.97h-5.54v4.44c0,7.84-7.05,14.24-14.91,14.24h-24.5v-37.46l56.13.03c8.3,0,15.03,6.73,15.04,15.02l.02,12.61,7.49-.06v-27.61h11.42c8.17,0,14.8,6.63,14.8,14.8l.03,60.31c0,8.17-6.63,14.79-14.8,14.79h-10.18s-49.99,0-49.99,0ZM138.59,255.39c-8.27,0-14.98-6.7-14.99-14.97l-.03-22.22,24.73.18c9.81,0,20.43,1.24,27.14,3.67,6.63,2.47,17.42,5.95,23.68,11.48,5.02,4.43,11.2,10.8,18.32,18.93.84.96,1.71,1.93,2.58,2.93h-81.42Z"/>
  </g>
</svg>
